<svg width="32" height="32" viewBox="0 0 32 32" fill="none" xmlns="http://www.w3.org/2000/svg">
<g clip-path="url(#clip0_14054_27845)">
<path d="M13.537 6.12866L15.4455 7.94365L19.0021 4.51048" stroke="#FF007A" stroke-miterlimit="10"/>
<path d="M12.6316 7.50637V2.97984L16.2696 1.6842L19.8859 3.01264V7.50637" stroke="#FF007A" stroke-miterlimit="10"/>
<path d="M12.6361 7.50452C13.378 9.03816 14.6828 10.2204 16.2741 10.801" stroke="#FF007A" stroke-miterlimit="10"/>
<path d="M19.8859 7.4782C19.141 9.0229 17.8291 10.2146 16.228 10.8011" stroke="#FF007A" stroke-miterlimit="10"/>
<path d="M6.3305 9.61459L1.08098 17.3393C0.94905 17.5334 1.00897 17.8061 1.21481 17.9483L4.18603 20.0012C4.39187 20.1434 4.66569 20.1013 4.79762 19.9072L10.0471 12.1825C10.1791 11.9884 10.1191 11.7157 9.9133 11.5735L6.94208 9.5206C6.73624 9.37838 6.46242 9.42046 6.3305 9.61459Z" stroke="#FF007A" stroke-miterlimit="10"/>
<path d="M9.35519 19.328C9.91995 19.7188 10.0148 20.579 9.56483 21.2414L8.19041 23.2641C7.7386 23.9256 6.91088 24.147 6.34611 23.757C5.78135 23.367 5.68737 22.506 6.13647 21.8436L7.51179 19.8218C7.96089 19.1603 8.79403 18.938 9.35519 19.328Z" stroke="#FF007A" stroke-miterlimit="10"/>
<path d="M12.0669 19.7716C12.6091 20.147 12.6877 20.9961 12.2386 21.6576L9.53675 25.632C9.08494 26.2935 8.27168 26.5268 7.7295 26.1505C7.18733 25.7742 7.10871 24.9259 7.55782 24.2653L10.2597 20.2909C10.7097 19.6267 11.5229 19.3925 12.0669 19.7716Z" stroke="#FF007A" stroke-miterlimit="10"/>
<path d="M13.4847 22.0212C14.0269 22.3975 14.1073 23.2458 13.6573 23.9073L12.057 26.2635C11.6052 26.925 10.7919 27.1582 10.2497 26.7819C9.70755 26.4056 9.62803 25.5565 10.0771 24.895L11.6784 22.5397C12.1275 21.8782 12.9407 21.6449 13.4847 22.0212Z" stroke="#FF007A" stroke-miterlimit="10"/>
<path d="M15.132 23.859C15.6742 24.2353 15.7546 25.0836 15.3046 25.7451L14.3784 27.1118C13.9266 27.7733 13.1133 28.0065 12.5711 27.6302C12.029 27.2539 11.9494 26.4057 12.3985 25.7442L13.3257 24.3775C13.7748 23.716 14.588 23.4827 15.132 23.859Z" stroke="#FF007A" stroke-miterlimit="10"/>
<path d="M25.2387 8.67849L22.2675 10.7314C22.0616 10.8736 22.0091 11.1571 22.1501 11.3647L27.7626 19.6234C27.9036 19.831 28.1848 19.8839 28.3907 19.7417L31.3619 17.6888C31.5677 17.5466 31.6203 17.263 31.4792 17.0555L25.8668 8.79678C25.7257 8.58923 25.4445 8.53627 25.2387 8.67849Z" stroke="#FF007A" stroke-miterlimit="10"/>
<path d="M14.7778 26.5205L17.3712 28.3137C18.0272 28.7692 18.901 28.6417 19.3122 28.0403C19.7233 27.439 19.5236 26.5688 18.8676 26.1151L16.6555 24.5835" stroke="#FF007A" stroke-miterlimit="10"/>
<path d="M17.6875 21.9301L21.4447 24.525C22.1008 24.9806 22.286 25.8662 21.8568 26.4976C21.4276 27.129 20.5393 27.2748 19.8833 26.822L16.6555 24.5897" stroke="#FF007A" stroke-miterlimit="10"/>
<path d="M18.3589 19.0117L23.6632 22.6763C24.3192 23.1319 24.5044 24.0175 24.0752 24.6489C23.646 25.2803 22.7577 25.427 22.1017 24.9733L17.4869 21.7843" stroke="#FF007A" stroke-miterlimit="10"/>
<path d="M17.7986 15.2352L18.883 15.9796L21.1583 17.5486L25.3936 20.4751C26.0496 20.9307 26.2349 21.8163 25.8056 22.4477C25.3764 23.0792 24.4882 23.2249 23.8321 22.7721L19.1071 19.5066" stroke="#FF007A" stroke-miterlimit="10"/>
<path d="M22.9348 12.2091H20.918C20.918 12.2091 19.4866 11.6843 19.2914 11.5094C19.2914 11.5094 18.5974 11.3344 17.5131 11.6625L12.6335 13.1713L10.2913 16.2983C10.2913 16.2983 9.70577 17.0418 11.9178 17.5666C11.9178 17.5666 14.5384 17.6104 15.7564 15.7954C15.7564 15.7954 17.1661 15.7735 17.8348 15.2706" stroke="#FF007A" stroke-miterlimit="10"/>
<path d="M27.5894 19.0117C27.5894 19.0117 26.6731 19.9538 24.7529 20.0449" stroke="#FF007A" stroke-miterlimit="10"/>
<path d="M9.66602 12.4743C9.66602 12.4743 11.4172 13.3089 12.8703 13.103" stroke="#FF007A" stroke-miterlimit="10"/>
<path d="M4.93283 20.2576C4.93283 20.2576 5.58886 21.3637 6.7708 21.7154" stroke="#FF007A" stroke-miterlimit="10"/>
</g>
<defs>
<clipPath id="clip0_14054_27845">
<rect width="32" height="32" fill="white"/>
</clipPath>
</defs>
</svg>
