<svg width="24" height="24" viewBox="0 0 24 24" fill="none" xmlns="http://www.w3.org/2000/svg">
<path d="M4 21.4V2.6C4 2.44087 4.06321 2.28826 4.17574 2.17574C4.28826 2.06321 4.44087 2 4.6 2H16.252C16.4111 2.00014 16.5636 2.06345 16.676 2.176L19.824 5.324C19.88 5.3799 19.9243 5.44632 19.9545 5.51943C19.9847 5.59254 20.0002 5.6709 20 5.75V21.4C20 21.4788 19.9845 21.5568 19.9543 21.6296C19.9242 21.7024 19.88 21.7685 19.8243 21.8243C19.7685 21.88 19.7024 21.9242 19.6296 21.9543C19.5568 21.9845 19.4788 22 19.4 22H4.6C4.52121 22 4.44319 21.9845 4.37039 21.9543C4.29759 21.9242 4.23145 21.88 4.17574 21.8243C4.12002 21.7685 4.07583 21.7024 4.04567 21.6296C4.01552 21.5568 4 21.4788 4 21.4Z" stroke="url(#paint0_linear_14054_27811)" stroke-linecap="round" stroke-linejoin="round"/>
<path d="M16 2V5.4C16 5.55913 16.0632 5.71174 16.1757 5.82426C16.2883 5.93679 16.4409 6 16.6 6H20" stroke="url(#paint1_linear_14054_27811)" stroke-linecap="round" stroke-linejoin="round"/>
<path d="M12 18.25C14.3472 18.25 16.25 16.3472 16.25 14C16.25 11.6528 14.3472 9.75 12 9.75C9.65279 9.75 7.75 11.6528 7.75 14C7.75 16.3472 9.65279 18.25 12 18.25Z" stroke="url(#paint2_linear_14054_27811)" stroke-linecap="round" stroke-linejoin="round"/>
<path d="M18.25 14.25H16.75M15.75 16.75L17.25 18.25M17.25 9.75L15.75 11.25M5.75 14.25H7.25M8.25 16.75L6.75 18.25M6.75 9.75L8.25 11.25M9.75 9.75C9.75 9.75 9 6.75 12 6.75C15 6.75 14.25 9.75 14.25 9.75" stroke="url(#paint3_linear_14054_27811)" stroke-linecap="round" stroke-linejoin="round"/>
<defs>
<linearGradient id="paint0_linear_14054_27811" x1="12" y1="2" x2="12" y2="22" gradientUnits="userSpaceOnUse">
<stop stop-color="#0017FF"/>
<stop offset="1" stop-color="#FF007A"/>
</linearGradient>
<linearGradient id="paint1_linear_14054_27811" x1="18" y1="2" x2="18" y2="6" gradientUnits="userSpaceOnUse">
<stop stop-color="#0017FF"/>
<stop offset="1" stop-color="#FF007A"/>
</linearGradient>
<linearGradient id="paint2_linear_14054_27811" x1="12" y1="9.75" x2="12" y2="18.25" gradientUnits="userSpaceOnUse">
<stop stop-color="#0017FF"/>
<stop offset="1" stop-color="#FF007A"/>
</linearGradient>
<linearGradient id="paint3_linear_14054_27811" x1="12" y1="6.75" x2="12" y2="18.25" gradientUnits="userSpaceOnUse">
<stop stop-color="#0017FF"/>
<stop offset="1" stop-color="#FF007A"/>
</linearGradient>
</defs>
</svg>
