<svg width="18" height="18" viewBox="0 0 18 18" fill="none" xmlns="http://www.w3.org/2000/svg">
<g clip-path="url(#clip0_14054_27764)">
<path d="M17 6.0103V3.00712C17 2.47822 16.7901 1.97089 16.4163 1.59634C16.0426 1.22179 15.5354 1.01058 15.006 1.00899L12 1M17 12.0047V15.0019C17 15.5318 16.7893 16.04 16.4142 16.4148C16.0391 16.7895 15.5304 17 15 17H12M6 1L2.994 1.00999C2.46461 1.01158 1.95744 1.22279 1.58366 1.59734C1.20989 1.97189 0.999998 2.47922 1 3.00812V6.0103M6 17H3C2.46957 17 1.96086 16.7895 1.58579 16.4148C1.21071 16.04 1 15.5318 1 15.0019V12.0047" stroke="url(#paint0_linear_14054_27764)" stroke-linecap="round" stroke-linejoin="round"/>
<path d="M13 8.49297C13 10.4242 11.433 11.9897 9.5 11.9897C7.567 11.9897 6 10.4242 6 8.49297C6 6.56178 7.567 4.99625 9.5 4.99625C11.433 4.99625 13 6.56178 13 8.49297ZM6.875 8.49297C6.875 9.94136 8.05025 11.1155 9.5 11.1155C10.9497 11.1155 12.125 9.94136 12.125 8.49297C12.125 7.04458 10.9497 5.87043 9.5 5.87043C8.05025 5.87043 6.875 7.04458 6.875 8.49297Z" fill="url(#paint1_linear_14054_27764)"/>
</g>
<defs>
<linearGradient id="paint0_linear_14054_27764" x1="9" y1="1" x2="9" y2="17" gradientUnits="userSpaceOnUse">
<stop stop-color="#0017FF"/>
<stop offset="1" stop-color="#FF007A"/>
</linearGradient>
<linearGradient id="paint1_linear_14054_27764" x1="9.5" y1="4.99625" x2="9.5" y2="11.9897" gradientUnits="userSpaceOnUse">
<stop stop-color="#0017FF"/>
<stop offset="1" stop-color="#FF007A"/>
</linearGradient>
<clipPath id="clip0_14054_27764">
<rect width="18" height="18" fill="white"/>
</clipPath>
</defs>
</svg>
