<svg width="24" height="24" viewBox="0 0 24 24" fill="none" xmlns="http://www.w3.org/2000/svg">
<path d="M0 0H24V24H0V0Z" fill="white" fill-opacity="0.01"/>
<path d="M12 2C17.523 2 22 6.47645 22 11.9988C22 17.5211 17.523 21.9976 12 21.9976C10.3822 21.9997 8.78829 21.6078 7.35601 20.8557L3.06601 21.9726C2.92266 22.0099 2.77205 22.0091 2.6291 21.9703C2.48615 21.9315 2.35582 21.856 2.25102 21.7514C2.14623 21.6467 2.07062 21.5164 2.03168 21.3735C1.99273 21.2306 1.99181 21.0801 2.02901 20.9367L3.14501 16.6482C2.39081 15.2146 1.99778 13.6186 2.00001 11.9988C2.00001 6.47645 6.47701 2 12 2Z" stroke="black"/>
<path d="M8.15387 9.69231H17.3846" stroke="black" stroke-linecap="round"/>
<path d="M8.15387 14.3077H12.7693" stroke="black" stroke-linecap="round"/>
</svg>
