<svg width="24" height="24" viewBox="0 0 24 24" fill="none" xmlns="http://www.w3.org/2000/svg">
<circle cx="12" cy="12" r="9" fill="#C4C9F7"/>
<path fill-rule="evenodd" clip-rule="evenodd" d="M12 21C16.9706 21 21 16.9706 21 12C21 7.02944 16.9706 3 12 3C7.02944 3 3 7.02944 3 12C3 16.9706 7.02944 21 12 21ZM12 20.2447C7.44655 20.2447 3.75526 16.5534 3.75526 12C3.75526 7.44655 7.44655 3.75526 12 3.75526C16.5534 3.75526 20.2447 7.44655 20.2447 12C20.2447 16.5534 16.5534 20.2447 12 20.2447ZM11.182 6.68106C11.182 6.45513 11.3652 6.27197 11.5911 6.27197C11.817 6.27197 12.0002 6.45513 12.0002 6.68106V12.2359L16.9053 15.0679C17.101 15.1809 17.168 15.4311 17.0551 15.6268C16.9421 15.8224 16.6919 15.8895 16.4963 15.7765L11.5363 12.9129C11.4715 12.8754 11.4208 12.823 11.3861 12.7624C11.2641 12.6916 11.182 12.5596 11.182 12.4083V6.68106Z" fill="#0017FF" fill-opacity="0.5"/>
</svg>
