<svg width="32" height="32" viewBox="0 0 32 32" fill="none" xmlns="http://www.w3.org/2000/svg">
<path d="M3.84238 2V7.01975H13.555V2" stroke="#0017FF" stroke-linecap="round" stroke-linejoin="round"/>
<path d="M4.49606 7.01968V9.09862H12.9282V7.01968" stroke="#0017FF" stroke-linecap="round" stroke-linejoin="round"/>
<path d="M4.89753 9.09866C4.79605 9.29939 4.69979 9.54042 4.67367 9.59788C4.4998 10.0456 4.43936 10.518 4.30057 10.9724C4.19162 11.3351 4.11028 11.7082 4.01551 12.0753L3.7633 13.0536C3.74166 13.1394 3.6245 13.3924 3.6536 13.4797L5.21691 18.23C5.21691 18.23 5.96312 18.874 6.35488 17.736C6.62426 16.9473 6.28548 16.0108 6.1646 15.2176C6.14818 15.1109 5.92357 13.611 5.92059 13.6117C6.18773 13.5568 6.4398 13.4447 6.65944 13.283C6.87908 13.1214 7.06107 12.914 7.19287 12.6752L13.2118 10.0852C13.1039 9.72855 12.9302 9.39524 12.6999 9.10239" stroke="#0017FF" stroke-linecap="round" stroke-linejoin="round"/>
<path d="M28.4718 29.1105V24.2624H18.7591V29.1105" stroke="#0017FF" stroke-linecap="round" stroke-linejoin="round"/>
<path d="M27.8188 24.2624V22.2543H19.3867V24.2624" stroke="#0017FF" stroke-linecap="round" stroke-linejoin="round"/>
<path d="M27.4174 22.2542C27.5189 22.0602 27.6151 21.8281 27.6375 21.7722C27.8121 21.3416 27.8726 20.8834 28.0106 20.4447C28.1196 20.094 28.2009 19.7335 28.2949 19.3798L28.5471 18.4344C28.5695 18.3516 28.6859 18.1075 28.6576 18.0225L27.1002 13.4385C27.1002 13.4385 26.354 12.8169 25.9623 13.9153C25.6929 14.6772 26.0317 15.5816 26.1526 16.348C26.1682 16.451 26.3936 17.8994 26.3966 17.8986C26.1323 17.9503 25.8821 18.0578 25.6627 18.2138C25.4433 18.3699 25.2598 18.5711 25.1243 18.8038L19.1046 21.3058C19.2138 21.6514 19.3875 21.9733 19.6165 22.2542" stroke="#0017FF" stroke-linecap="round" stroke-linejoin="round"/>
<path d="M11.5694 24.5295L6.9608 26.501L2 14.9049L13.4737 9.99635" stroke="#0017FF" stroke-linecap="round" stroke-linejoin="round"/>
<path d="M18.5808 21.5297L14.6699 23.2035" stroke="#0017FF" stroke-linecap="round" stroke-linejoin="round"/>
<path d="M17.7129 8.14578L13.4662 9.9628L15.3609 14.2431" stroke="#0017FF" stroke-linecap="round" stroke-linejoin="round"/>
<path d="M16.76 17.4016L18.5987 21.5543L30 16.6771L25.0138 5.02278L20.597 6.91218" stroke="#0017FF" stroke-linecap="round" stroke-linejoin="round"/>
<path d="M15.3609 14.2431L15.3758 14.2767" stroke="#0017FF" stroke-linecap="round" stroke-linejoin="round"/>
<path d="M15.3758 14.275C15.5491 13.833 15.8493 13.4521 16.2386 13.1804C16.628 12.9086 17.089 12.7582 17.5637 12.7479C18.0384 12.7377 18.5055 12.8681 18.9062 13.1228C19.3068 13.3775 19.6232 13.7451 19.8154 14.1792C20.0076 14.6134 20.0671 15.0947 19.9863 15.5626C19.9055 16.0304 19.688 16.4639 19.3614 16.8085C19.0347 17.153 18.6134 17.3932 18.1505 17.4987C17.6876 17.6043 17.2038 17.5705 16.76 17.4017" stroke="#0017FF" stroke-linecap="round" stroke-linejoin="round"/>
<path d="M11.544 24.5406C11.1028 24.3674 10.7227 24.0676 10.4515 23.6789C10.1803 23.2901 10.0301 22.8299 10.0198 22.356C10.0096 21.8821 10.1397 21.4158 10.3938 21.0157C10.648 20.6156 11.0148 20.2996 11.4481 20.1075C11.8814 19.9153 12.3618 19.8557 12.829 19.9359C13.2961 20.0162 13.7291 20.2328 14.0734 20.5586C14.4177 20.8843 14.658 21.3047 14.764 21.7666C14.87 22.2286 14.837 22.7116 14.6691 23.1549" stroke="#0017FF" stroke-linecap="round" stroke-linejoin="round"/>
<path d="M17.7465 8.12701C17.3415 7.96543 16.9932 7.68777 16.7455 7.3289C16.4978 6.97003 16.3616 6.54596 16.3541 6.10995C16.3467 5.67395 16.4682 5.24545 16.7035 4.8783C16.9387 4.51114 17.2772 4.22169 17.6765 4.04631C18.0757 3.87093 18.5179 3.81744 18.9475 3.89256C19.377 3.96768 19.7748 4.16805 20.0908 4.46852C20.4069 4.76898 20.6271 5.15614 20.7238 5.58135C20.8205 6.00656 20.7893 6.45087 20.6343 6.85846" stroke="#0017FF" stroke-linecap="round" stroke-linejoin="round"/>
<path d="M5.44228 27.0129L4.70801 28.4098" stroke="#0017FF" stroke-linecap="round" stroke-linejoin="round"/>
<path d="M7.35852 27.8367V29.4127" stroke="#0017FF" stroke-linecap="round" stroke-linejoin="round"/>
<path d="M9.29269 27.0129L10.0143 28.4098" stroke="#0017FF" stroke-linecap="round" stroke-linejoin="round"/>
</svg>
