<svg width="15" height="15" viewBox="0 0 15 15" fill="none" xmlns="http://www.w3.org/2000/svg">
<g clip-path="url(#clip0_14054_27843)">
<path d="M11.783 0H3.21699L0.0699898 5.243C0.0181249 5.32947 -0.00638213 5.42961 -0.000314405 5.53026C0.00575332 5.63092 0.0421122 5.72738 0.10399 5.807L7.10399 14.807C7.15073 14.8672 7.21062 14.916 7.27908 14.9495C7.34754 14.983 7.42276 15.0004 7.49899 15.0004C7.57522 15.0004 7.65044 14.983 7.7189 14.9495C7.78736 14.916 7.84725 14.8672 7.89399 14.807L14.894 5.807C14.9559 5.72738 14.9922 5.63092 14.9983 5.53026C15.0044 5.42961 14.9799 5.32947 14.928 5.243L11.783 0Z" fill="black"/>
</g>
<defs>
<clipPath id="clip0_14054_27843">
<rect width="15" height="15" fill="white"/>
</clipPath>
</defs>
</svg>
