<svg width="24" height="24" viewBox="0 0 24 24" fill="none" xmlns="http://www.w3.org/2000/svg">
<path d="M4.87804 3.00301H19.132C19.2898 3.00298 19.4454 3.0403 19.586 3.11191C19.7266 3.18351 19.8483 3.28738 19.941 3.41501L23.763 8.67101C23.831 8.76453 23.8645 8.87871 23.8577 8.99412C23.851 9.10953 23.8044 9.21904 23.726 9.30401L12.372 21.604C12.2823 21.7015 12.1576 21.7595 12.0252 21.7651C11.8929 21.7707 11.7637 21.7236 11.666 21.634L0.283038 9.30301C0.204642 9.21804 0.158111 9.10853 0.151365 8.99312C0.144619 8.87771 0.178075 8.76353 0.246038 8.67001L4.06904 3.41401C4.16182 3.28638 4.28348 3.18251 4.42409 3.11091C4.56469 3.0393 4.72025 3.00298 4.87804 3.00301ZM5.38704 5.00301L2.58704 8.85301L12.005 19.054L21.422 8.85201L18.622 5.00201H5.38804L5.38704 5.00301Z" fill="black"/>
</svg>
