<svg width="24" height="24" viewBox="0 0 24 24" fill="none" xmlns="http://www.w3.org/2000/svg">
<path d="M20.4 12C20.4 16.6392 16.6392 20.4 12 20.4C7.36078 20.4 3.59998 16.6392 3.59998 12C3.59998 7.36081 7.36078 3.60001 12 3.60001C16.6392 3.60001 20.4 7.36081 20.4 12Z" fill="#FF9797"/>
<path d="M12 3C12.8262 3 13.6201 3.10547 14.3818 3.31641C15.1436 3.52734 15.8613 3.83203 16.5352 4.23047C17.209 4.62891 17.8154 5.09766 18.3545 5.63672C18.8936 6.17578 19.3652 6.78516 19.7695 7.46484C20.1738 8.14453 20.4756 8.85938 20.6748 9.60938C20.874 10.3594 20.9824 11.1562 21 12C21 12.8262 20.8945 13.6201 20.6836 14.3818C20.4727 15.1436 20.168 15.8613 19.7695 16.5352C19.3711 17.209 18.9023 17.8154 18.3633 18.3545C17.8242 18.8936 17.2148 19.3652 16.5352 19.7695C15.8555 20.1738 15.1406 20.4756 14.3906 20.6748C13.6406 20.874 12.8438 20.9824 12 21C11.1738 21 10.3799 20.8945 9.61816 20.6836C8.85645 20.4727 8.13867 20.168 7.46484 19.7695C6.79102 19.3711 6.18457 18.9023 5.64551 18.3633C5.10645 17.8242 4.63477 17.2148 4.23047 16.5352C3.82617 15.8555 3.52441 15.1406 3.3252 14.3906C3.12598 13.6406 3.01758 12.8438 3 12C3 11.1738 3.10547 10.3799 3.31641 9.61816C3.52734 8.85645 3.83203 8.13867 4.23047 7.46484C4.62891 6.79102 5.09766 6.18457 5.63672 5.64551C6.17578 5.10645 6.78516 4.63477 7.46484 4.23047C8.14453 3.82617 8.85938 3.52441 9.60938 3.3252C10.3594 3.12598 11.1562 3.01758 12 3ZM12 19.875C12.9609 19.875 13.8779 19.7109 14.751 19.3828C15.624 19.0547 16.4268 18.5771 17.1592 17.9502L6.0498 6.84082C5.42285 7.56738 4.94531 8.36719 4.61719 9.24023C4.28906 10.1133 4.125 11.0332 4.125 12C4.125 12.7266 4.21875 13.4238 4.40625 14.0918C4.59375 14.7598 4.85742 15.3867 5.19727 15.9727C5.53711 16.5586 5.94727 17.0889 6.42773 17.5635C6.9082 18.0381 7.43848 18.4482 8.01855 18.7939C8.59863 19.1396 9.22559 19.4062 9.89941 19.5938C10.5732 19.7812 11.2734 19.875 12 19.875ZM17.9502 17.1592C18.5771 16.4326 19.0547 15.6328 19.3828 14.7598C19.7109 13.8867 19.875 12.9668 19.875 12C19.875 11.2734 19.7812 10.5762 19.5938 9.9082C19.4062 9.24023 19.1426 8.61328 18.8027 8.02734C18.4629 7.44141 18.0527 6.91113 17.5723 6.43652C17.0918 5.96191 16.5615 5.55176 15.9814 5.20605C15.4014 4.86035 14.7744 4.59375 14.1006 4.40625C13.4268 4.21875 12.7266 4.125 12 4.125C11.0391 4.125 10.1221 4.28906 9.24902 4.61719C8.37598 4.94531 7.57324 5.42285 6.84082 6.0498L17.9502 17.1592Z" fill="#FF001F"/>
</svg>
