<svg width="24" height="24" viewBox="0 0 24 24" fill="none" xmlns="http://www.w3.org/2000/svg">
<path d="M17 12C18.1046 12 19 11.1046 19 10C19 8.89543 18.1046 8 17 8C15.8954 8 15 8.89543 15 10C15 11.1046 15.8954 12 17 12Z" fill="black"/>
<path d="M17 13C15.1256 13 14 13.858 14 14.7148C14 15.1432 15.1256 15.5728 17 15.5728C18.7592 15.5728 20 15.1444 20 14.7148C20 13.858 18.824 13 17 13Z" fill="black"/>
<rect x="1.5" y="4.5" width="21" height="15" rx="1.5" stroke="black"/>
<rect x="4" y="10" width="6" height="1" rx="0.5" fill="black"/>
<rect x="4" y="13" width="8" height="1" rx="0.5" fill="black"/>
</svg>
