<svg width="24" height="24" viewBox="0 0 24 24" fill="none" xmlns="http://www.w3.org/2000/svg">
<path d="M0 0H24V24H0V0Z" fill="white" fill-opacity="0.01"/>
<path d="M11.9999 21.9999C17.5227 21.9999 21.9999 17.5227 21.9999 11.9999C21.9999 6.47703 17.5227 1.99988 11.9999 1.99988C6.47703 1.99988 1.99988 6.47703 1.99988 11.9999C1.99988 17.5227 6.47703 21.9999 11.9999 21.9999Z" stroke="black" stroke-width="0.926641" stroke-linejoin="round"/>
<path d="M7.5 16.5L9.75 9.75L16.5 7.5L14.25 14.25L7.5 16.5Z" stroke="black" stroke-width="0.926641" stroke-linejoin="round"/>
<path fill-rule="evenodd" clip-rule="evenodd" d="M12 13.0002C12.5523 13.0002 13 12.5525 13 12.0002C13 11.4479 12.5523 11.0002 12 11.0002C11.4477 11.0002 11 11.4479 11 12.0002C11 12.5525 11.4477 13.0002 12 13.0002Z" fill="black"/>
</svg>
