<svg width="24" height="24" viewBox="0 0 24 24" fill="none" xmlns="http://www.w3.org/2000/svg">
<path d="M6.29499 6.295C6.22089 6.36908 6.17584 6.46728 6.16803 6.57176C6.16021 6.67624 6.19015 6.78006 6.2524 6.86433L6.29499 6.91333L8.64815 9.26708C7.50075 10.0713 6.68167 11.2621 6.34107 12.6213C6.31481 12.7331 6.33363 12.8509 6.39346 12.949C6.45329 13.0471 6.54933 13.1178 6.66082 13.1456C6.77231 13.1735 6.89029 13.1564 6.98928 13.098C7.08827 13.0397 7.1603 12.9447 7.18982 12.8336C7.49251 11.6273 8.23801 10.579 9.27815 9.89708L10.334 10.9529C9.91223 11.3936 9.67983 11.982 9.68656 12.5919C9.69329 13.2019 9.93861 13.785 10.37 14.2163C10.8014 14.6475 11.3845 14.8928 11.9944 14.8994C12.6044 14.906 13.1927 14.6735 13.6333 14.2517L17.0861 17.705C17.1641 17.7833 17.2689 17.8291 17.3794 17.8333C17.4899 17.8374 17.5978 17.7996 17.6816 17.7274C17.7653 17.6552 17.8186 17.554 17.8307 17.4441C17.8428 17.3342 17.8129 17.2238 17.747 17.1351L17.7044 17.0861L14.1385 13.5196L14.1391 13.5184L13.4391 12.8196L11.7649 11.1454H11.7661L10.0861 9.46717L10.0867 9.466L9.42574 8.80683L6.91332 6.295C6.83129 6.21307 6.72009 6.16705 6.60415 6.16705C6.48822 6.16705 6.37702 6.21307 6.29499 6.295ZM10.9523 11.5713L13.0144 13.6339C12.7394 13.8996 12.371 14.0466 11.9886 14.0432C11.6062 14.0399 11.2405 13.8865 10.9701 13.6162C10.6997 13.3458 10.5463 12.98 10.543 12.5976C10.5397 12.2153 10.6867 11.8463 10.9523 11.5713ZM12 8.20833C11.4167 8.20833 10.8508 8.29467 10.3147 8.45625L11.0363 9.17725C12.2844 8.93013 13.5797 9.17205 14.6544 9.853C15.7292 10.534 16.5011 11.6019 16.8107 12.8359C16.841 12.9461 16.9131 13.0401 17.0117 13.0978C17.1104 13.1555 17.2277 13.1724 17.3386 13.1447C17.4494 13.117 17.5451 13.0471 17.6051 12.9498C17.665 12.8525 17.6846 12.7357 17.6595 12.6242C17.3432 11.3627 16.6145 10.243 15.5891 9.443C14.5638 8.64297 13.3005 8.20841 12 8.20833ZM12.1137 10.2558L14.331 12.4725C14.3023 11.8938 14.0595 11.3464 13.6497 10.9367C13.2399 10.527 12.6925 10.2844 12.1137 10.2558Z" fill="black"/>
</svg>
