<svg width="24" height="24" viewBox="0 0 24 24" fill="none" xmlns="http://www.w3.org/2000/svg">
<path d="M0 0H24V24H0V0Z" fill="white" fill-opacity="0.01"/>
<rect x="2.5" y="4.5" width="19" height="15" rx="1.5" stroke="#0017FF"/>
<path d="M13.5834 10.3332H10.6667C9.37804 10.3332 8.33337 11.3779 8.33337 12.6665C8.33337 13.9552 9.37804 14.9999 10.6667 14.9999H15.3334C16.622 14.9999 17.6667 13.9552 17.6667 12.6665C17.6667 12.0748 17.4464 11.5344 17.0834 11.1231" stroke="#FF007A" stroke-width="0.875" stroke-linecap="round" stroke-linejoin="round"/>
<path d="M6.58333 11.8767C6.22029 11.4654 6 10.9251 6 10.3333C6 9.04466 7.04467 8 8.33333 8H13C14.2887 8 15.3333 9.04466 15.3333 10.3333C15.3333 11.622 14.2887 12.6667 13 12.6667H10.0833" stroke="#FF007A" stroke-width="0.875" stroke-linecap="round" stroke-linejoin="round"/>
</svg>
