<svg width="24" height="24" viewBox="0 0 24 24" fill="none" xmlns="http://www.w3.org/2000/svg">
<path fill-rule="evenodd" clip-rule="evenodd" d="M23.9999 5.4V5.3304C23.9999 5.30916 23.9988 5.28793 23.9966 5.2668C23.9978 5.3112 23.9999 5.35536 23.9999 5.4Z" fill="black"/>
<path fill-rule="evenodd" clip-rule="evenodd" d="M1.2 2.74032L7.746 5.78112L7.83504 21.3691L1.2 18.2861V2.74032ZM0.62064 1.20048C0.540168 1.19771 0.459961 1.21117 0.384798 1.24005C0.309636 1.26893 0.241055 1.31264 0.183142 1.36858C0.125229 1.42452 0.0791684 1.49155 0.0477044 1.56567C0.0162404 1.63979 1.67598e-05 1.71948 0 1.8L0 18.6696C1.91877e-05 18.784 0.0327178 18.8959 0.0942445 18.9923C0.155771 19.0887 0.243563 19.1655 0.34728 19.2137L7.94712 22.7441C8.02805 22.7817 8.11635 22.8008 8.2056 22.8C8.29119 22.7993 8.37564 22.7803 8.45328 22.7443L15.8004 19.3313L23.1475 22.7441C23.2389 22.7865 23.3395 22.8052 23.4401 22.7984C23.5406 22.7917 23.6379 22.7598 23.7228 22.7056C23.8077 22.6513 23.8777 22.5766 23.9261 22.4883C23.9746 22.3999 24 22.3008 24 22.2V5.4C24.0006 6.63315 23.5769 7.82896 22.8 8.78664V21.2597L16.1573 18.174L16.1117 10.1892C15.8594 10.0578 15.6178 9.90665 15.3893 9.73728L15.4373 18.1762L8.55504 21.3737L8.46648 5.86824L13.5425 3.51C13.8071 2.80717 14.215 2.16706 14.7403 1.63032L8.19984 4.66872L0.85272 1.25592C0.779852 1.22209 0.700931 1.20324 0.62064 1.20048Z" fill="black"/>
<path d="M19.0625 8.875C21.3062 8.875 23.125 7.05616 23.125 4.8125C23.125 2.56884 21.3062 0.75 19.0625 0.75C16.8188 0.75 15 2.56884 15 4.8125C15 7.05616 16.8188 8.875 19.0625 8.875Z" stroke="black" stroke-linecap="round" stroke-linejoin="round"/>
<path d="M19.0625 2.375V4.8125L20.6875 5.625" stroke="black" stroke-linecap="round" stroke-linejoin="round"/>
</svg>
