<svg width="32" height="32" viewBox="0 0 32 32" fill="none" xmlns="http://www.w3.org/2000/svg">
<path d="M18.4544 21.8289V27.7412C18.4526 28.3236 18.2204 28.8817 17.8085 29.2935C17.3967 29.7054 16.8386 29.9376 16.2562 29.9394H4.19816C3.61572 29.9376 3.05766 29.7054 2.64581 29.2935C2.23397 28.8817 2.0018 28.3236 2 27.7412V4.19816C2.0018 3.61572 2.23397 3.05766 2.64581 2.64581C3.05766 2.23397 3.61572 2.0018 4.19816 2H16.2562C16.8386 2.0018 17.3967 2.23397 17.8085 2.64581C18.2204 3.05766 18.4526 3.61572 18.4544 4.19816V10.1104" stroke="#0017FF" stroke-linecap="round" stroke-linejoin="round"/>
<path d="M12.6406 16.4502C13.0014 16.2418 13.0014 15.9007 12.6406 15.6922L8.26854 13.1681C7.90774 12.9597 7.61212 13.1302 7.61212 13.5471V18.5953C7.61212 19.0122 7.90774 19.1828 8.26854 18.9743L12.6406 16.4502Z" stroke="#0017FF" stroke-linecap="round" stroke-linejoin="round"/>
<path d="M8.83096 26.9044H11.6325" stroke="#0017FF" stroke-linecap="round" stroke-linejoin="round"/>
<path d="M16.1804 20.3372H21.5469" stroke="#0017FF" stroke-linecap="round" stroke-linejoin="round"/>
<path d="M14.7614 16.0713H19.8187" stroke="#0017FF" stroke-linecap="round" stroke-linejoin="round"/>
<path d="M16.2168 11.7508H21.5651" stroke="#0017FF" stroke-linecap="round" stroke-linejoin="round"/>
<path d="M25.3657 20.6404C27.9251 20.6404 30 18.5655 30 16.0061C30 13.4466 27.9251 11.3717 25.3657 11.3717C22.8062 11.3717 20.7314 13.4466 20.7314 16.0061C20.7314 18.5655 22.8062 20.6404 25.3657 20.6404Z" stroke="#0017FF" stroke-linecap="round" stroke-linejoin="round"/>
<path d="M23.8428 17.7919C24.1024 18.1502 24.4285 18.284 24.8818 18.284H25.5092C25.7898 18.2836 26.0589 18.1651 26.2571 17.9545C26.4554 17.7439 26.5666 17.4584 26.5663 17.1609C26.5663 16.5408 26.0929 16.0379 25.5092 16.0379H24.8159C24.5352 16.0375 24.2662 15.919 24.0679 15.7084C23.8697 15.4978 23.7585 15.2124 23.7587 14.9149C23.7587 14.2947 24.2322 13.7918 24.8159 13.7918H25.4433C25.8969 13.7918 26.2226 13.9252 26.4822 14.2842M25.1625 18.8455V13.2303" stroke="#0017FF" stroke-linecap="round" stroke-linejoin="round"/>
</svg>
