<svg width="22" height="22" viewBox="0 0 22 22" fill="none" xmlns="http://www.w3.org/2000/svg">
<circle cx="11" cy="11" r="11" fill="#0017FF" fill-opacity="0.2"/>
<path d="M9.00598 7.16746C9.11994 7.16746 9.22923 7.2091 9.30982 7.28324C9.3904 7.35738 9.43567 7.45792 9.43567 7.56277V13.8878C9.43567 13.9926 9.3904 14.0932 9.30982 14.1673C9.22923 14.2414 9.11994 14.2831 9.00598 14.2831C8.89202 14.2831 8.78273 14.2414 8.70215 14.1673C8.62156 14.0932 8.57629 13.9926 8.57629 13.8878V7.56277C8.57629 7.45792 8.62156 7.35738 8.70215 7.28324C8.78273 7.2091 8.89202 7.16746 9.00598 7.16746ZM12.4435 7.16746C12.5574 7.16746 12.6667 7.2091 12.7473 7.28324C12.8279 7.35738 12.8732 7.45792 12.8732 7.56277V13.8878C12.8732 13.9926 12.8279 14.0932 12.7473 14.1673C12.6667 14.2414 12.5574 14.2831 12.4435 14.2831C12.3295 14.2831 12.2202 14.2414 12.1396 14.1673C12.0591 14.0932 12.0138 13.9926 12.0138 13.8878V7.56277C12.0138 7.45792 12.0591 7.35738 12.1396 7.28324C12.2202 7.2091 12.3295 7.16746 12.4435 7.16746Z" fill="#0017FF"/>
</svg>
