<svg width="24" height="24" viewBox="0 0 24 24" fill="none" xmlns="http://www.w3.org/2000/svg">
<path d="M0 0H24V24H0V0Z" fill="white" fill-opacity="0.01"/>
<path d="M11.9999 21.9999C17.5227 21.9999 21.9999 17.5227 21.9999 11.9999C21.9999 6.47703 17.5227 1.99988 11.9999 1.99988C6.47703 1.99988 1.99988 6.47703 1.99988 11.9999C1.99988 17.5227 6.47703 21.9999 11.9999 21.9999Z" stroke="black" stroke-width="0.926641" stroke-linejoin="round"/>
<path d="M10 8.65241V15.3477C10 15.7079 10.2309 16 10.5156 16C10.6167 16 10.7156 15.9624 10.7999 15.8918L14.7687 12.5731C15.0062 12.3745 15.0715 11.9697 14.9145 11.6692C14.8769 11.5973 14.8285 11.5355 14.772 11.4875L10.8033 8.11105C10.567 7.91004 10.2466 7.98942 10.0877 8.28846C10.0306 8.39608 10 8.5228 10 8.65241Z" stroke="black" stroke-linejoin="round"/>
</svg>
