<svg width="18" height="18" viewBox="0 0 18 18" fill="none" xmlns="http://www.w3.org/2000/svg">
<g clip-path="url(#clip0_14054_27767)">
<path fill-rule="evenodd" clip-rule="evenodd" d="M2.5 5.0015C2.5 4.87647 2.55072 4.75656 2.64101 4.66815C2.7313 4.57974 2.85375 4.53007 2.98144 4.53007H5.70447C5.83216 4.53007 5.95461 4.57974 6.0449 4.66815C6.13519 4.75656 6.18591 4.87647 6.18591 5.0015V7.66852C6.18591 7.79355 6.13519 7.91346 6.0449 8.00187C5.95461 8.09028 5.83216 8.13995 5.70447 8.13995C5.57678 8.13995 5.45433 8.09028 5.36404 8.00187C5.27375 7.91346 5.22303 7.79355 5.22303 7.66852V6.1851C4.54002 7.03618 4.18863 8.0975 4.23177 9.1791C4.27491 10.2607 4.70975 11.292 5.45846 12.0883C6.20717 12.8846 7.22088 13.394 8.31812 13.5253C9.41537 13.6567 10.5245 13.4013 11.4471 12.805C12.3696 12.2087 13.0453 11.3103 13.3532 10.2707C13.6611 9.23112 13.5811 8.11817 13.1275 7.13107C12.6739 6.14396 11.8763 5.34715 10.8776 4.88326C9.87884 4.41937 8.74409 4.31868 7.67645 4.59922C7.61533 4.61519 7.5516 4.61922 7.4889 4.61107C7.42619 4.60293 7.36574 4.58277 7.31099 4.55174C7.25624 4.52072 7.20826 4.47944 7.16981 4.43027C7.13135 4.38109 7.10316 4.32498 7.08685 4.26513C7.07053 4.20529 7.06642 4.14288 7.07474 4.08148C7.08306 4.02008 7.10364 3.96088 7.13532 3.90727C7.16701 3.85366 7.20916 3.80668 7.25938 3.76902C7.3096 3.73136 7.36691 3.70376 7.42803 3.68779C8.72342 3.34755 10.1004 3.47243 11.3099 4.03983C12.5195 4.60724 13.4818 5.57973 14.0228 6.78144C14.5638 7.98314 14.6478 9.33474 14.2596 10.5918C13.8714 11.8489 13.0367 12.9285 11.9064 13.6354C10.776 14.3422 9.42468 14.6297 8.0967 14.4458C6.76873 14.2619 5.55179 13.6188 4.66594 12.6327C3.78009 11.6467 3.2838 10.3828 3.26683 9.0696C3.24986 7.75641 3.71332 6.48062 4.5734 5.47293H2.98144C2.85375 5.47293 2.7313 5.42326 2.64101 5.33485C2.55072 5.24644 2.5 5.12653 2.5 5.0015Z" fill="url(#paint0_linear_14054_27767)"/>
<path d="M15 0.5H3C1.61929 0.5 0.5 1.61929 0.5 3V15C0.5 16.3807 1.61929 17.5 3 17.5H15C16.3807 17.5 17.5 16.3807 17.5 15V3C17.5 1.61929 16.3807 0.5 15 0.5Z" stroke="url(#paint1_linear_14054_27767)"/>
</g>
<defs>
<linearGradient id="paint0_linear_14054_27767" x1="8.50001" y1="3.5" x2="8.50001" y2="14.5" gradientUnits="userSpaceOnUse">
<stop stop-color="#0017FF"/>
<stop offset="1" stop-color="#FF007A"/>
</linearGradient>
<linearGradient id="paint1_linear_14054_27767" x1="9" y1="0.5" x2="9" y2="17.5" gradientUnits="userSpaceOnUse">
<stop stop-color="#0017FF"/>
<stop offset="1" stop-color="#FF007A"/>
</linearGradient>
<clipPath id="clip0_14054_27767">
<rect width="18" height="18" fill="white"/>
</clipPath>
</defs>
</svg>
