<svg width="24" height="24" viewBox="0 0 24 24" fill="none" xmlns="http://www.w3.org/2000/svg">
<path d="M11.2083 2.62064C11.3184 2.43179 11.476 2.27511 11.6655 2.16621C11.855 2.05731 12.0697 2 12.2883 2C12.5069 2 12.7216 2.05731 12.9111 2.16621C13.1006 2.27511 13.2583 2.43179 13.3683 2.62064L16.1633 7.41864L21.5913 8.59464C21.8048 8.64103 22.0024 8.74258 22.1645 8.88917C22.3265 9.03575 22.4473 9.22225 22.5148 9.43006C22.5823 9.63787 22.5941 9.85974 22.5491 10.0736C22.5041 10.2874 22.4038 10.4856 22.2583 10.6486L18.5583 14.7896L19.1183 20.3146C19.1404 20.5322 19.105 20.7517 19.0157 20.9513C18.9265 21.151 18.7864 21.3237 18.6094 21.4522C18.4325 21.5807 18.225 21.6606 18.0076 21.6838C17.7901 21.7071 17.5704 21.6729 17.3703 21.5846L12.2883 19.3446L7.20632 21.5846C7.00623 21.6729 6.78651 21.7071 6.56907 21.6838C6.35163 21.6606 6.1441 21.5807 5.96719 21.4522C5.79028 21.3237 5.65018 21.151 5.56088 20.9513C5.47159 20.7517 5.43622 20.5322 5.45832 20.3146L6.01832 14.7896L2.31832 10.6496C2.17254 10.4867 2.07207 10.2883 2.02693 10.0744C1.98179 9.86041 1.99356 9.63837 2.06106 9.43039C2.12856 9.22242 2.24944 9.03579 2.41162 8.88913C2.5738 8.74248 2.77162 8.64093 2.98532 8.59464L8.41332 7.41864L11.2083 2.62064Z" fill="#FF007A"/>
</svg>
