<svg width="24" height="24" viewBox="0 0 24 24" fill="none" xmlns="http://www.w3.org/2000/svg">
<path d="M15.7313 7.67031L15.8422 7.86066L16.0574 7.9073L21.4851 9.08323C21.4852 9.08324 21.4852 9.08324 21.4852 9.08324C21.6133 9.11109 21.7318 9.17201 21.829 9.25995C21.9263 9.3479 21.9987 9.4598 22.0392 9.58449C22.0797 9.70918 22.0868 9.8423 22.0598 9.97058C22.0328 10.0988 21.9727 10.2177 21.8855 10.3155C21.8854 10.3155 21.8854 10.3156 21.8853 10.3156L18.1855 14.4565L18.0386 14.6208L18.0609 14.8401L18.6209 20.3651L18.6209 20.3652C18.6341 20.4957 18.6129 20.6274 18.5593 20.7472C18.5058 20.8669 18.4217 20.9706 18.3155 21.0477C18.2094 21.1248 18.0849 21.1727 17.9544 21.1867C17.824 21.2006 17.6921 21.1801 17.5721 21.1272L17.572 21.1271L12.49 18.8871L12.2883 18.7982L12.0866 18.8871L7.00465 21.1271L7.00456 21.1272C6.88451 21.1801 6.75268 21.2006 6.62221 21.1867C6.49175 21.1727 6.36723 21.1248 6.26108 21.0477C6.15493 20.9706 6.07087 20.8669 6.0173 20.7472C5.96372 20.6274 5.9425 20.4957 5.95576 20.3652L5.95577 20.3651L6.51577 14.8401L6.53799 14.6208L6.39112 14.4564L2.69112 10.3164L2.69099 10.3163C2.60353 10.2185 2.54324 10.0995 2.51616 9.97113C2.48907 9.84276 2.49613 9.70954 2.53664 9.58475C2.57714 9.45997 2.64966 9.34799 2.74697 9.26C2.84428 9.172 2.96297 9.11108 3.09119 9.0833L8.51919 7.9073L8.73447 7.86066L8.84536 7.67031L11.6403 2.87238C11.6403 2.87236 11.6403 2.87234 11.6404 2.87231C11.7064 2.75904 11.8009 2.66505 11.9146 2.59973C12.0283 2.53439 12.1572 2.5 12.2883 2.5C12.4195 2.5 12.5483 2.53439 12.662 2.59973C12.7757 2.66505 12.8702 2.75904 12.9363 2.87231C12.9363 2.87234 12.9363 2.87236 12.9363 2.87238L15.7313 7.67031Z" stroke="#FF007A"/>
</svg>
