<svg width="32" height="32" viewBox="0 0 32 32" fill="none" xmlns="http://www.w3.org/2000/svg">
<path d="M11.04 4.66357C10.8042 4.66357 10.7621 4.7876 10.939 4.93644L13.2716 6.91266C13.4569 7.08631 13.5411 7.34264 13.499 7.5907L12.7916 10.6997C12.7411 10.923 12.859 11.0057 13.0526 10.8817L15.6211 9.26098C15.84 9.13695 16.1095 9.13695 16.3369 9.25272L19.0905 10.8899C19.2926 11.0057 19.4021 10.923 19.3516 10.6997L18.5684 7.66512C18.5179 7.41706 18.6021 7.16899 18.7874 6.99535L21.2211 4.9447C21.3979 4.79587 21.3474 4.67184 21.12 4.67184H18.2316C17.979 4.6553 17.7516 4.51473 17.6337 4.29148L16.2526 1.28166C16.16 1.07494 16.0084 1.07494 15.9158 1.28166L14.6442 4.23359C14.5347 4.45685 14.3074 4.60569 14.0547 4.62222L11.04 4.66357Z" stroke="#FF007A" stroke-miterlimit="10"/>
<path d="M5.43158 6.45789L9.2379 8.72352" stroke="#FF007A" stroke-linecap="round" stroke-linejoin="round"/>
<path d="M3.66315 12.4858L8.11788 12.4942" stroke="#FF007A" stroke-linecap="round" stroke-linejoin="round"/>
<path d="M22.88 16.3804L26.6863 18.6543" stroke="#FF007A" stroke-linecap="round" stroke-linejoin="round"/>
<path d="M23.9158 12.494H28.3705" stroke="#FF007A" stroke-linecap="round" stroke-linejoin="round"/>
<path d="M22.8379 8.65737L26.7284 6.52403" stroke="#FF007A" stroke-linecap="round" stroke-linejoin="round"/>
<path d="M5.39789 18.522L9.27999 16.3804" stroke="#FF007A" stroke-linecap="round" stroke-linejoin="round"/>
<path d="M16.0253 23.3674C18.4158 23.3674 20.3537 21.4646 20.3537 19.1173C20.3537 16.77 18.4158 14.8672 16.0253 14.8672C13.6347 14.8672 11.6968 16.77 11.6968 19.1173C11.6968 21.4646 13.6347 23.3674 16.0253 23.3674Z" stroke="#FF007A" stroke-miterlimit="10"/>
<path d="M7.77264 30.2966C8.53054 25.8067 12.8505 22.7638 17.4316 23.508C20.9769 24.0868 23.7558 26.8155 24.3453 30.2966" stroke="#FF007A" stroke-miterlimit="10"/>
<path d="M7.77264 30.2718H24.3453" stroke="#FF007A" stroke-linecap="round" stroke-linejoin="round"/>
</svg>
