<svg width="32" height="32" viewBox="0 0 32 32" fill="none" xmlns="http://www.w3.org/2000/svg">
<path d="M1.03168 24.6074V27.7733C1.03168 29.5146 3.0104 30.9392 5.42883 30.9392H21.8355" stroke="#FF007A" stroke-miterlimit="10"/>
<path d="M5.22479 6.38211V3.55035C5.22688 2.8746 5.49625 2.22712 5.97408 1.74929C6.45191 1.27145 7.09939 1.00209 7.77514 1H26.1201" stroke="#FF007A" stroke-miterlimit="10"/>
<path d="M7.33012 20.2164C10.8009 20.2164 13.6145 17.4028 13.6145 13.932C13.6145 10.4612 10.8009 7.64759 7.33012 7.64759C3.85934 7.64759 1.04572 10.4612 1.04572 13.932C1.04572 17.4028 3.85934 20.2164 7.33012 20.2164Z" stroke="#FF007A" stroke-miterlimit="10"/>
<path d="M8.07412 10.0123L6.42783 17.9271" stroke="#FF007A" stroke-miterlimit="10"/>
<path d="M4.69799 13.5987C5.32017 13.5987 5.82454 13.0943 5.82454 12.4721C5.82454 11.8499 5.32017 11.3456 4.69799 11.3456C4.07582 11.3456 3.57144 11.8499 3.57144 12.4721C3.57144 13.0943 4.07582 13.5987 4.69799 13.5987Z" stroke="#FF007A" stroke-miterlimit="10"/>
<path d="M9.75649 16.682C10.3787 16.682 10.883 16.1776 10.883 15.5554C10.883 14.9333 10.3787 14.4289 9.75649 14.4289C9.13432 14.4289 8.62994 14.9333 8.62994 15.5554C8.62994 16.1776 9.13432 16.682 9.75649 16.682Z" stroke="#FF007A" stroke-miterlimit="10"/>
<path d="M18.075 24.6074H1" stroke="#FF007A" stroke-miterlimit="10"/>
<path d="M22.0061 30.9173C21.8688 30.9322 21.7308 30.9396 21.5927 30.9393C19.3607 30.9393 17.5517 29.0389 17.5517 26.6943C17.55 25.9569 17.7342 25.231 18.0873 24.5837" stroke="#FF007A" stroke-miterlimit="10"/>
<path d="M22.0061 30.9173C22.7722 30.8304 23.4943 30.5144 24.078 30.0107C24.6285 29.5384 25.2318 28.7891 25.3162 28.0469C25.391 27.3943 25.3259 26.682 25.3277 26.0242L25.333 23.9681L25.3461 18.6414L25.362 12.7386L25.3752 7.51483L25.3831 4.22488V3.69722" stroke="#FF007A" stroke-miterlimit="10"/>
<path d="M5.22479 21.5787V24.5811" stroke="#FF007A" stroke-miterlimit="10"/>
<path d="M11.4336 22.2119H22.7641" stroke="#FF007A" stroke-miterlimit="10"/>
<path d="M22.7642 19.5524H13.013" stroke="#FF007A" stroke-miterlimit="10"/>
<path d="M22.7641 17.1146H15.5458" stroke="#FF007A" stroke-miterlimit="10"/>
<path d="M22.7641 14.6136H15.5458" stroke="#FF007A" stroke-miterlimit="10"/>
<path d="M22.7641 12.1827H15.5458" stroke="#FF007A" stroke-miterlimit="10"/>
<path d="M22.7114 9.69935H15.493" stroke="#FF007A" stroke-miterlimit="10"/>
<path d="M22.7114 7.12777H15.493" stroke="#FF007A" stroke-miterlimit="10"/>
<path d="M22.7114 4.64423H15.493" stroke="#FF007A" stroke-miterlimit="10"/>
<path d="M26.0805 1.00605C25.6139 1.78293 25.3719 2.67397 25.3813 3.58015C25.3813 3.61708 25.3813 3.65402 25.3813 3.69095" stroke="#FF007A" stroke-miterlimit="10"/>
<path d="M30.9956 3.9232V7.51127H25.3716" stroke="#FF007A" stroke-miterlimit="10"/>
<path d="M25.3716 1H28.1858C28.9316 1.00186 29.6463 1.29895 30.1737 1.82631C30.7011 2.35366 30.9981 3.06838 31 3.81418V6.66705" stroke="#FF007A" stroke-miterlimit="10"/>
</svg>
