<svg width="24" height="24" viewBox="0 0 24 24" fill="none" xmlns="http://www.w3.org/2000/svg">
<path d="M0 1H17.28V19H0V1Z" fill="white" fill-opacity="0.01"/>
<path d="M8.63989 8.5C10.2305 8.5 11.5199 7.15685 11.5199 5.5C11.5199 3.84315 10.2305 2.5 8.63989 2.5C7.04931 2.5 5.75989 3.84315 5.75989 5.5C5.75989 7.15685 7.04931 8.5 8.63989 8.5Z" stroke="black" stroke-opacity="0.25" stroke-width="0.75" stroke-linecap="round" stroke-linejoin="round"/>
<path d="M15.12 17.5C15.12 13.7721 12.2188 10.75 8.64003 10.75C5.06124 10.75 2.16003 13.7721 2.16003 17.5" stroke="black" stroke-opacity="0.25" stroke-width="0.75" stroke-linecap="round" stroke-linejoin="round"/>
<ellipse cx="16.2" cy="10" rx="7.56" ry="9" fill="white"/>
<path d="M4.31995 4H21.5999V22H4.31995V4Z" fill="white" fill-opacity="0.01"/>
<path d="M12.9601 11.5C14.5507 11.5 15.8401 10.1569 15.8401 8.5C15.8401 6.84315 14.5507 5.5 12.9601 5.5C11.3695 5.5 10.0801 6.84315 10.0801 8.5C10.0801 10.1569 11.3695 11.5 12.9601 11.5Z" stroke="black" stroke-opacity="0.25" stroke-width="0.75" stroke-linecap="round" stroke-linejoin="round"/>
<path d="M19.4401 20.5C19.4401 16.7721 16.5389 13.75 12.9601 13.75C9.38131 13.75 6.4801 16.7721 6.4801 20.5" stroke="black" stroke-opacity="0.25" stroke-width="0.75" stroke-linecap="round" stroke-linejoin="round"/>
</svg>
