<svg width="24" height="24" viewBox="0 0 24 24" fill="none" xmlns="http://www.w3.org/2000/svg">
<path d="M0 1H17.28V19H0V1Z" fill="white" fill-opacity="0.01"/>
<path d="M8.63983 8.5C10.2304 8.5 11.5198 7.15685 11.5198 5.5C11.5198 3.84315 10.2304 2.5 8.63983 2.5C7.04925 2.5 5.75983 3.84315 5.75983 5.5C5.75983 7.15685 7.04925 8.5 8.63983 8.5Z" stroke="#0017FF" stroke-width="0.8" stroke-linecap="round" stroke-linejoin="round"/>
<path d="M15.12 17.5C15.12 13.7721 12.2188 10.75 8.63997 10.75C5.06118 10.75 2.15997 13.7721 2.15997 17.5" stroke="#0017FF" stroke-width="0.8" stroke-linecap="round" stroke-linejoin="round"/>
<ellipse cx="16.2" cy="10" rx="7.56" ry="9" fill="white"/>
<path d="M4.32001 4H21.6V22H4.32001V4Z" fill="white" fill-opacity="0.01"/>
<path d="M12.9602 11.5C14.5508 11.5 15.8402 10.1569 15.8402 8.5C15.8402 6.84315 14.5508 5.5 12.9602 5.5C11.3696 5.5 10.0802 6.84315 10.0802 8.5C10.0802 10.1569 11.3696 11.5 12.9602 11.5Z" stroke="#0017FF" stroke-width="0.8" stroke-linecap="round" stroke-linejoin="round"/>
<path d="M19.4402 20.5C19.4402 16.7721 16.539 13.75 12.9602 13.75C9.38137 13.75 6.48016 16.7721 6.48016 20.5" stroke="#0017FF" stroke-width="0.8" stroke-linecap="round" stroke-linejoin="round"/>
<path d="M20.0131 9L20.0052 15" stroke="#0017FF" stroke-width="0.8" stroke-linecap="round" stroke-linejoin="round"/>
<path d="M17 12H23" stroke="#0017FF" stroke-width="0.8" stroke-linecap="round" stroke-linejoin="round"/>
</svg>
