<svg width="24" height="24" viewBox="0 0 24 24" fill="none" xmlns="http://www.w3.org/2000/svg">
<path d="M0 0H24V24H0V0Z" fill="white" fill-opacity="0.01"/>
<rect x="2.5" y="4.5" width="19" height="15" rx="1.5" stroke="black"/>
<path d="M10.1562 8.76718C10.2702 8.76718 10.3795 8.80883 10.4601 8.88297C10.5407 8.9571 10.5859 9.05765 10.5859 9.16249V15.4875C10.5859 15.5923 10.5407 15.6929 10.4601 15.767C10.3795 15.8412 10.2702 15.8828 10.1562 15.8828C10.0423 15.8828 9.933 15.8412 9.85242 15.767C9.77183 15.6929 9.72656 15.5923 9.72656 15.4875V9.16249C9.72656 9.05765 9.77183 8.9571 9.85242 8.88297C9.933 8.80883 10.0423 8.76718 10.1562 8.76718ZM13.5938 8.76718C13.7077 8.76718 13.817 8.80883 13.8976 8.88297C13.9782 8.9571 14.0234 9.05765 14.0234 9.16249V15.4875C14.0234 15.5923 13.9782 15.6929 13.8976 15.767C13.817 15.8412 13.7077 15.8828 13.5938 15.8828C13.4798 15.8828 13.3705 15.8412 13.2899 15.767C13.2093 15.6929 13.1641 15.5923 13.1641 15.4875V9.16249C13.1641 9.05765 13.2093 8.9571 13.2899 8.88297C13.3705 8.80883 13.4798 8.76718 13.5938 8.76718Z" fill="black"/>
</svg>
