<svg width="32" height="32" viewBox="0 0 32 32" fill="none" xmlns="http://www.w3.org/2000/svg">
<path d="M1.01086 9.64262C1.01086 9.64262 7.77509 -0.803271 15.58 9.64262" stroke="#0017FF" stroke-miterlimit="10"/>
<path d="M15.4667 9.2C15.4667 9.2 8.80488 19.6459 1 9.2" stroke="#0017FF" stroke-miterlimit="10"/>
<path d="M8.25202 12.1907C9.46136 12.1907 10.4417 11.148 10.4417 9.86171C10.4417 8.57544 9.46136 7.53271 8.25202 7.53271C7.04268 7.53271 6.06232 8.57544 6.06232 9.86171C6.06232 11.148 7.04268 12.1907 8.25202 12.1907Z" stroke="#0017FF" stroke-miterlimit="10"/>
<path d="M16.1219 7.08291H27.5546C27.938 7.08291 28.3056 7.24487 28.5767 7.53317C28.8477 7.82147 29 8.21249 29 8.6202V26.3682C29 26.7759 28.8477 27.1669 28.5767 27.4552C28.3056 27.7435 27.938 27.9055 27.5546 27.9055H6.70551C6.32218 27.9055 5.95455 27.7435 5.68349 27.4552C5.41244 27.1669 5.26016 26.7759 5.26016 26.3682V15.661" stroke="#0017FF" stroke-miterlimit="10"/>
<path d="M12.8157 21.9909H8.83742C8.53807 21.9909 8.29541 22.2491 8.29541 22.5674V24.7004C8.29541 25.0188 8.53807 25.2769 8.83742 25.2769H12.8157C13.1151 25.2769 13.3577 25.0188 13.3577 24.7004V22.5674C13.3577 22.2491 13.1151 21.9909 12.8157 21.9909Z" stroke="#0017FF" stroke-miterlimit="10"/>
<path d="M19.0921 19.7772H15.0054C14.7061 19.7772 14.4634 20.0353 14.4634 20.3537V24.7004C14.4634 25.0188 14.7061 25.2769 15.0054 25.2769H19.0921C19.3915 25.2769 19.6341 25.0188 19.6341 24.7004V20.3537C19.6341 20.0353 19.3915 19.7772 19.0921 19.7772Z" stroke="#0017FF" stroke-miterlimit="10"/>
<path d="M25.3559 16.4912H21.2493C20.95 16.4912 20.7073 16.7493 20.7073 17.0677V24.7003C20.7073 25.0187 20.95 25.2768 21.2493 25.2768H25.3559C25.6552 25.2768 25.8979 25.0187 25.8979 24.7003V17.0677C25.8979 16.7493 25.6552 16.4912 25.3559 16.4912Z" stroke="#0017FF" stroke-miterlimit="10"/>
<path d="M25.8979 14.8656H22.7886" stroke="#0017FF" stroke-miterlimit="10"/>
<path d="M21.1806 15.3459C21.4301 15.3459 21.6323 15.1308 21.6323 14.8655C21.6323 14.6001 21.4301 14.3851 21.1806 14.3851C20.9312 14.3851 20.729 14.6001 20.729 14.8655C20.729 15.1308 20.9312 15.3459 21.1806 15.3459Z" fill="#0017FF"/>
<path d="M22.2014 10.2017C22.4145 10.2017 22.5872 10.018 22.5872 9.79142C22.5872 9.56483 22.4145 9.38115 22.2014 9.38115C21.9884 9.38115 21.8157 9.56483 21.8157 9.79142C21.8157 10.018 21.9884 10.2017 22.2014 10.2017Z" fill="#0017FF"/>
<path d="M24.3433 10.2017C24.5563 10.2017 24.729 10.018 24.729 9.79142C24.729 9.56483 24.5563 9.38115 24.3433 9.38115C24.1302 9.38115 23.9576 9.56483 23.9576 9.79142C23.9576 10.018 24.1302 10.2017 24.3433 10.2017Z" fill="#0017FF"/>
<path d="M26.2828 10.2017C26.4958 10.2017 26.6685 10.018 26.6685 9.79142C26.6685 9.56483 26.4958 9.38115 26.2828 9.38115C26.0697 9.38115 25.897 9.56483 25.897 9.79142C25.897 10.018 26.0697 10.2017 26.2828 10.2017Z" fill="#0017FF"/>
<path d="M16.0894 11.8717H29" stroke="#0017FF" stroke-miterlimit="10"/>
</svg>
