<svg width="24" height="24" viewBox="0 0 24 24" fill="none" xmlns="http://www.w3.org/2000/svg">
<path d="M0 0H24V24H0V0Z" fill="white" fill-opacity="0.01"/>
<path d="M18.9351 6.99336C18.5925 7.33599 18.5513 7.87187 18.7839 8.29697C19.0462 8.77649 19.2591 9.28686 19.4159 9.82127C19.5523 10.2863 19.9604 10.6363 20.445 10.6363H21C21.5523 10.6363 22 11.0841 22 11.6363V12.3637C22 12.9159 21.5523 13.3637 21 13.3637H20.445C19.9604 13.3637 19.5523 13.7137 19.4159 14.1787C19.2591 14.7131 19.0462 15.2235 18.7839 15.703C18.5513 16.1281 18.5925 16.664 18.9351 17.0066L19.3282 17.3997C19.7187 17.7903 19.7187 18.4234 19.3282 18.8139L18.8139 19.3282C18.4234 19.7187 17.7903 19.7187 17.3997 19.3282L17.0066 18.9351C16.664 18.5925 16.1281 18.5513 15.703 18.7839C15.2235 19.0462 14.7131 19.2591 14.1787 19.4159C13.7137 19.5523 13.3637 19.9604 13.3637 20.445V21C13.3637 21.5523 12.9159 22 12.3637 22H11.6363C11.0841 22 10.6363 21.5523 10.6363 21V20.445C10.6363 19.9604 10.2863 19.5523 9.82127 19.4159C9.28686 19.2591 8.77649 19.0462 8.29697 18.7839C7.87187 18.5513 7.33599 18.5925 6.99336 18.9351L6.60026 19.3282C6.20973 19.7187 5.57657 19.7187 5.18605 19.3282L4.67179 18.8139C4.28127 18.4234 4.28127 17.7903 4.67178 17.3997L5.06487 17.0066C5.40749 16.664 5.44866 16.1281 5.21612 15.703C4.95382 15.2235 4.74088 14.7131 4.58413 14.1787C4.44772 13.7137 4.03965 13.3637 3.55499 13.3637H3C2.44772 13.3637 2 12.9159 2 12.3637V11.6363C2 11.0841 2.44772 10.6363 3 10.6363H3.55499C4.03965 10.6363 4.44772 10.2863 4.58413 9.82126C4.74088 9.28686 4.95382 8.77649 5.21612 8.29697C5.44866 7.87187 5.40749 7.33599 5.06487 6.99336L4.67178 6.60026C4.28127 6.20973 4.28127 5.57657 4.67179 5.18605L5.18605 4.67179C5.57657 4.28127 6.20973 4.28127 6.60026 4.67178L6.99336 5.06487C7.33599 5.40749 7.87187 5.44866 8.29697 5.21612C8.77649 4.95382 9.28686 4.74088 9.82126 4.58413C10.2863 4.44772 10.6363 4.03965 10.6363 3.55499V3C10.6363 2.44772 11.0841 2 11.6363 2H12.3637C12.9159 2 13.3637 2.44772 13.3637 3V3.55499C13.3637 4.03965 13.7137 4.44772 14.1787 4.58413C14.7131 4.74088 15.2235 4.95382 15.703 5.21612C16.1281 5.44866 16.664 5.40749 17.0066 5.06487L17.3997 4.67178C17.7903 4.28127 18.4234 4.28127 18.8139 4.67179L19.3282 5.18605C19.7187 5.57657 19.7187 6.20973 19.3282 6.60026L18.9351 6.99336Z" stroke="black" stroke-linejoin="round"/>
<path d="M12 14C13.1046 14 14 13.1046 14 12C14 10.8954 13.1046 10 12 10C10.8954 10 10 10.8954 10 12C10 13.1046 10.8954 14 12 14Z" fill="white" stroke="black" stroke-linejoin="round"/>
</svg>
